<?xml version="1.0" encoding="utf-8"?>
<!-- Generator: Adobe Illustrator 27.5.0, SVG Export Plug-In . SVG Version: 6.00 Build 0)  -->
<svg version="1.1" id="Layer_1" xmlns="http://www.w3.org/2000/svg" xmlns:xlink="http://www.w3.org/1999/xlink" x="0px" y="0px"
	 viewBox="0 0 800 800" style="enable-background:new 0 0 800 800;" xml:space="preserve">
<style type="text/css">
	.st0{fill:#FFFFFF;}
	.st1{fill:#5865F2;stroke:#FFFFFF;stroke-width:20;stroke-miterlimit:10;}
</style>
<circle class="st0" cx="267.1" cy="429.4" r="100.2"/>
<circle class="st0" cx="532.9" cy="429.4" r="100.2"/>
<g>
	<path class="st1" d="M665.9,151.9c-49.6-23.2-102.6-40.1-158-49.7c-6.8,12.3-14.8,28.9-20.2,42c-58.9-8.9-117.3-8.9-175.1,0
		c-5.5-13.2-13.6-29.7-20.5-42c-55.5,9.6-108.6,26.5-158.2,49.8C33.8,303.1,6.7,450.5,20.3,595.8c66.3,49.5,130.6,79.6,193.8,99.3
		c15.6-21.5,29.5-44.3,41.5-68.4c-22.8-8.7-44.7-19.4-65.4-31.8c5.5-4.1,10.8-8.3,16-12.7c126,59,263,59,387.5,0
		c5.2,4.4,10.6,8.6,16,12.7c-20.7,12.5-42.7,23.2-65.5,31.9c12,24,25.8,46.9,41.5,68.4c63.3-19.7,127.6-49.8,193.9-99.4
		C795.7,427.4,752.6,281.4,665.9,151.9z M272.8,506.5c-37.8,0-68.9-35.3-68.9-78.3s30.4-78.4,68.9-78.4c38.5,0,69.5,35.3,68.9,78.4
		C341.7,471.1,311.3,506.5,272.8,506.5z M527.2,506.5c-37.8,0-68.9-35.3-68.9-78.3s30.4-78.4,68.9-78.4c38.5,0,69.5,35.3,68.9,78.4
		C596.1,471.1,565.7,506.5,527.2,506.5z"/>
</g>
</svg>
