<?xml version="1.0" encoding="utf-8"?>
<!-- Generator: Adobe Illustrator 27.5.0, SVG Export Plug-In . SVG Version: 6.00 Build 0)  -->
<svg version="1.1" id="Layer_1" xmlns="http://www.w3.org/2000/svg" xmlns:xlink="http://www.w3.org/1999/xlink" x="0px" y="0px"
	 viewBox="0 0 64 64" style="enable-background:new 0 0 64 64;" xml:space="preserve">
<style type="text/css">
	.st0{fill-rule:evenodd;clip-rule:evenodd;fill:#FFFFFF;}
	.st1{fill-rule:evenodd;clip-rule:evenodd;fill:#6441A4;}
</style>
<polygon class="st0" points="9.1,3.8 9.1,47.1 23,47.1 23,55.9 31.8,47.1 48.3,47.1 58.6,36.8 58.6,3.8 "/>
<path class="st1" d="M5.7,0L1.4,11v44.9h15.3V64h8.6l8.1-8.1h12.4l16.7-16.7V0H5.7z M56.8,36.3l-9.6,9.5H32L23.8,54v-8.1H11V5.7
	h45.8L56.8,36.3L56.8,36.3z M47.2,16.7v16.7h-5.7V16.7H47.2z M32,16.7v16.7h-5.7V16.7H32z"/>
</svg>
